<?xml version="1.0"?><svg width="1200" height="1200" xmlns="http://www.w3.org/2000/svg">
 <title>Big_Slice_Of_Lime</title>

 <g>
  <title>Layer 1</title>
  <g id="Layer_1">
   <g id="svg_1">
    <path id="svg_2" fill-rule="evenodd" fill="#ABD148" d="m396.553101,2c-144.114975,29.888802 -246.524673,76.228035 -312.094681,142.608994c-65.106613,66.612625 -66.728489,164.156693 -77.270662,251.506119c-10.889719,86.770233 1.506025,191.033508 13.554224,265.871338c11.93235,74.142822 29.888802,125.115906 57.924034,177.942627c27.91938,52.482361 68.813751,94.879639 108.317947,135.310547c39.388336,39.96759 65.338318,67.191895 125.695145,104.498169c60.472687,37.187256 144.57843,109.129028 232.156342,117.930176c87.236816,8.341064 180.610413,-13.89856 285.919495,-67.191895c58.036682,-47.961182 94.647827,-110.750732 112.951843,-191.496826c17.258057,-81.444458 13.782654,-191.728577 -6.838196,-290.662842c-20.968567,-99.281799 -74.484009,-214.550598 -116.30835,-297.497833c-41.940247,-83.178925 -62.561157,-136.12149 -133.347534,-194.972305c-71.594055,-58.619156 -166.698914,-109.013062 -290.659607,-153.846268z" clip-rule="evenodd"/>
    <path id="svg_3" fill-rule="evenodd" fill="#9ED231" d="m521.556396,1186.546631c-28.382813,-9.612305 -114.924561,-50.393921 -166.245239,-81.206299c-51.088959,-30.931396 -91.519958,-56.768799 -137.395798,-102.525635c-46.339188,-46.455078 -110.86657,-126.737732 -137.279922,-172.034302c-26.297516,-45.180847 -35.565361,-113.183655 -19.34663,-96.73645c16.566242,16.685364 92.794308,163.114075 116.079723,195.319824c22.358688,31.394897 2.432816,-17.145508 19.346634,-5.792358c17.145523,11.584839 55.838776,56.186279 81.209488,73.447754c24.907349,16.797974 47.613556,9.151917 67.655304,27.108398c19.694153,17.840576 20.968475,56.186401 50.278046,79.240112c29.07785,22.821899 102.522339,41.7052 123.841644,56.186279c20.849426,14.017578 29.196899,35.68103 1.85675,26.992676z" clip-rule="evenodd"/>
    <path id="svg_4" fill-rule="evenodd" fill="#E7F2D6" d="m105.658615,698.478638c-15.755333,-73.679382 -20.736801,-196.362518 -19.462479,-277.803711c1.042641,-81.672913 9.383698,-152.224365 26.760918,-207.136322c17.1455,-54.796127 37.418922,-89.203011 75.532951,-119.323509c38.113998,-30.468075 101.714584,-54.796169 151.065872,-60.936115c49.003723,-6.371645 84.800812,-0.926785 141.334656,24.328098c56.533844,25.37072 137.160919,65.68586 194.97226,126.737801c57.344849,60.936066 106.120117,154.309601 146.319397,236.330048c39.735901,81.904572 73.795227,172.150208 90.129822,251.042725c15.75531,78.657715 11.118103,150.37085 4.86554,216.867676c-6.487427,65.917542 -13.670044,130.097351 -43.909546,175.509766c-31.275818,44.833252 -85.495972,76.575562 -138.901855,92.562622c-53.406067,15.407837 -112.836121,23.748779 -177.826904,0c-65.454102,-24.559814 -146.084351,-93.48938 -209.684937,-143.767456c-63.948151,-50.8573 -127.432892,-102.988953 -168.095551,-155.931519c-40.430984,-52.710815 -57.808197,-85.7276 -73.100143,-158.480103z" clip-rule="evenodd"/>
    <path id="svg_5" fill-rule="evenodd" fill="#ABD148" d="m454.129608,552.278381c-86.770172,-67.191925 -153.151093,-120.713715 -202.270691,-163.22998c-49.003769,-42.400391 -74.722031,-57.228973 -90.129837,-90.129791c-15.523636,-33.364258 -22.590378,-74.490295 -2.432816,-107.275314c20.041718,-33.132553 86.538528,-104.958359 121.756348,-87.696991c34.986115,17.724747 62.789642,127.780426 87.812836,192.539474c24.791473,64.759094 44.949036,127.548737 60.936035,192.423676c8.109406,21.084351 16.218781,42.168732 24.328125,63.368927z" clip-rule="evenodd"/>
    <path id="svg_6" fill-rule="evenodd" fill="#ABD148" d="m432.234344,423.107727c-9.847076,-44.022247 -23.517212,-91.056549 -41.473602,-143.767456c-18.188141,-53.2901 -68.582062,-134.267914 -65.801697,-170.528343c3.012085,-36.028763 56.070465,-46.339237 82.83139,-43.906425c26.644989,2.432808 51.204803,21.779434 75.532928,58.503281c-8.225189,-1.27433 -8.225189,-1.27433 0,0c8.228394,1.158478 38.345703,-10.542183 48.771973,7.298416c10.082092,17.493057 16.68219,29.888809 12.160889,97.544083c-5.209961,68.234497 -18.416565,168.790649 -41.357758,306.997375c-4.98468,-3.822998 -9.850311,-5.444824 -14.593628,-4.865601c-4.984711,0.231689 -9.734467,2.66449 -14.715973,7.298462c-13.782684,-38.114075 -27.568604,-76.343903 -41.354523,-114.573792z" clip-rule="evenodd"/>
    <path id="svg_7" fill-rule="evenodd" fill="#ABD148" d="m534.528198,527.950195c-0.466614,-36.723785 26.99585,-149.21228 39.043945,-204.703491c11.69751,-55.722931 15.404602,-114.805435 31.626587,-126.737793c15.983765,-11.584793 40.659485,30.352188 63.365662,56.07045c22.590332,25.023178 59.545898,62.789688 70.664124,94.995438c10.31366,32.321594 19.929016,64.990753 -7.298462,97.544067c-28.031982,32.089935 -122.448181,80.861969 -155.928284,94.995453c-33.132507,13.785889 -41.129272,23.74884 -41.473572,-12.164124z" clip-rule="evenodd"/>
    <path id="svg_8" fill-rule="evenodd" fill="#ABD148" d="m558.972107,581.587952c9.502808,-12.511597 47.848511,-17.493164 82.831421,-34.175232c35.101929,-16.913879 97.080688,-58.503265 124.308167,-65.801727c26.178467,-7.645966 19.346619,-1.505981 34.059387,22.011169c14.481018,23.74881 44.253967,86.770172 53.637634,119.323517c9.383667,31.973999 21.200256,66.033386 2.4328,73.100037c-19.578308,6.603455 -71.825745,-19.111633 -117.009766,-31.626404c-45.644165,-12.975037 -123.024231,-30.0047 -153.495483,-43.906494c-30.355469,-13.901733 -36.147827,-26.876709 -26.76416,-38.924866z" clip-rule="evenodd"/>
    <path id="svg_9" fill-rule="evenodd" fill="#ABD148" d="m554.106506,625.378479c18.304016,-0.579285 96.614075,44.601563 143.767395,60.93927c46.918457,15.520447 104.729919,17.840637 134.036255,34.171997c28.382751,16.334595 29.660339,38.928162 36.492188,63.368896c6.487488,23.980591 6.252563,56.881409 2.4328,80.398499c-4.286377,23.632996 -6.950928,58.619202 -26.760986,58.503296c-20.157471,-1.158447 -62.670532,-35.681152 -92.675171,-63.368835c-30.815552,-28.263733 -60.475891,-74.026917 -87.697021,-102.406494c-27.571838,-28.617676 -54.335938,-43.558899 -73.103333,-65.801697c-18.648315,-22.361877 -54.335938,-64.993958 -36.492126,-65.804932z" clip-rule="evenodd"/>
    <path id="svg_10" fill-rule="evenodd" fill="#ABD148" d="m417.521606,564.558228c-20.968506,-25.602478 -106.696075,-82.252136 -153.498657,-119.439362c-46.686798,-37.187256 -99.745209,-97.312378 -124.304993,-99.976868c-24.443947,-2.085266 -21.779442,52.826691 -21.895302,85.264191c-0.695084,31.626495 -2.548645,81.788757 19.462486,104.842529c22.242828,22.474548 70.203934,22.011108 112.14093,31.742371c41.821152,9.731201 107.738724,26.992554 136.46904,26.760864c28.035217,-0.579285 51.552368,-4.633911 31.626495,-29.193726z" clip-rule="evenodd"/>
    <path id="svg_11" fill-rule="evenodd" fill="#ABD148" d="m458.995239,642.523987c-42.284576,-8.572754 -87.697021,-14.249268 -138.901855,-17.145508c-51.320679,-2.780334 -125.463455,-28.614441 -165.662735,0c-40.199265,28.614563 -4.518066,79.703491 4.865616,114.57373c9.383713,34.754456 21.316055,54.561279 51.089005,92.562622c30.120514,38.229919 96.26976,117.354126 126.737808,134.036316c30.236328,16.102844 36.376282,-3.01532 53.637634,-36.495422c17.261383,-33.827698 37.187256,-114.805481 48.772034,-163.345825c11.468994,-48.30542 17.724792,-88.968079 19.462494,-124.185913z" clip-rule="evenodd"/>
    <path id="svg_12" fill-rule="evenodd" fill="#ABD148" d="m476.024902,737.516174c-7.76181,29.544495 -18.999023,74.72522 -29.193665,119.439331c-10.658051,44.717468 -31.974091,111.793457 -31.742371,146.203491c0,33.711853 10.194641,36.607971 34.175171,56.070496c24.328094,19.230835 74.60614,49.579712 109.708069,58.503174c34.98938,8.456909 80.865234,3.475464 97.425049,-7.414185c15.6427,-11.237183 13.789124,-12.974854 -2.432861,-58.390625c-16.913757,-46.570923 -71.362427,-151.297546 -94.995422,-214.550659c-23.398071,-63.365601 -32.669128,-134.383728 -43.909607,-160.797058c-11.465759,-26.297485 -18.069061,-5.328979 -24.32486,4.865601c-6.831818,10.078796 -7.411072,26.53241 -14.709503,56.070435z" clip-rule="evenodd"/>
    <path id="svg_13" fill-rule="evenodd" fill="#ABD148" d="m549.121826,703.456848c7.761841,29.309631 16.688599,71.130737 36.611206,124.192322c19.809998,52.710876 54.216858,147.358826 80.39856,190.103516c25.486572,42.403687 47.610291,67.079224 73.096924,63.368896c25.373962,-4.402222 68.929626,-63.716431 77.968933,-87.697021c8.228455,-23.98053 -3.356323,-26.297485 -26.760864,-56.070496c-24.209045,-30.583862 -90.709045,-95.574585 -114.573792,-124.304932c-23.632935,-28.733521 -9.039307,-25.258057 -26.760864,-46.339233c-18.188171,-21.431824 -61.97876,-61.631226 -80.39856,-80.395386c-18.303955,-19.114868 -26.410156,-34.406799 -29.306335,-31.626465c-3.246948,2.66449 1.502747,19.806824 9.724792,48.768799z" clip-rule="evenodd"/>
    <path id="svg_14" fill-rule="evenodd" fill="#E7F2D6" d="m610.064331,810.619507c-4.518066,0.344299 14.481018,55.259583 29.306396,85.260925c14.947571,29.309631 53.525024,89.782288 58.503235,90.248901c3.942078,-0.466614 -16.913818,-60.93927 -31.739197,-90.248901c-15.060242,-30.001343 -51.327087,-84.91333 -56.070435,-85.260925z" clip-rule="evenodd"/>
    <path id="svg_15" fill-rule="evenodd" fill="#E7F2D6" d="m688.023682,869.122803c5.21637,-1.042664 65.228882,77.386536 73.216003,94.995361c6.838196,17.145508 -16.7948,22.709473 -29.306396,7.301697c-12.740112,-16.569458 -48.652954,-100.559326 -43.909607,-102.297058z" clip-rule="evenodd"/>
    <path id="svg_16" fill-rule="evenodd" fill="#E7F2D6" d="m641.803467,700.911438c-2.777039,-0.46344 24.331299,16.801147 38.924988,31.742371c14.014404,14.828491 43.330383,55.25946 46.339233,56.070435c2.54541,0.115845 -15.060303,-38.924927 -29.193787,-53.637634c-14.715881,-15.060242 -53.061584,-33.595947 -56.070435,-34.175171z" clip-rule="evenodd"/>
    <path id="svg_17" fill-rule="evenodd" fill="#E7F2D6" d="m712.473999,713.191284c7.642761,1.274353 89.775879,37.303101 99.857849,43.790588c8.917053,5.676575 -26.99585,0.112671 -43.787292,-7.301636c-16.80127,-7.758606 -63.487976,-37.647461 -56.070557,-36.488953z" clip-rule="evenodd"/>
    <path id="svg_18" fill-rule="evenodd" fill="#E7F2D6" d="m646.669128,562.009583c5.908264,-4.286377 0.466614,1.853577 24.33136,-4.865662c23.632935,-7.182556 107.619568,-36.028748 117.003296,-36.492126c8.341064,-0.347534 -37.6474,23.517151 -63.365662,34.059387c-26.065857,9.962952 -76.810486,25.486511 -90.129822,26.87677c-13.206726,1.042603 5.905029,-15.755371 12.160828,-19.578369z" clip-rule="evenodd"/>
    <path id="svg_19" fill-rule="evenodd" fill="#E7F2D6" d="m717.339661,620.512817c4.978271,2.780334 30.815613,6.603333 51.204895,9.727966c19.922607,2.664551 72.749329,9.850342 68.231262,7.301697c-5.44165,-3.359558 -77.270691,-21.31604 -97.547302,-24.331238c-19.922668,-2.893066 -27.22113,4.289551 -21.888855,7.301575z" clip-rule="evenodd"/>
    <path id="svg_20" fill-rule="evenodd" fill="#E7F2D6" d="m576.005066,493.775085c2.313782,2.316986 44.945862,-24.21225 70.664063,-43.790588c25.142273,-19.925842 82.020508,-70.203918 80.398621,-73.100128c-2.551941,-2.780334 -67.19519,36.144623 -92.562622,55.95462c-25.486633,19.694153 -60.476013,57.576477 -58.500061,60.936096z" clip-rule="evenodd"/>
    <path id="svg_21" fill-rule="evenodd" fill="#E7F2D6" d="m641.803467,374.451538c6.838257,-3.822968 39.044006,-38.345703 38.924988,-41.473602c-0.466614,-3.243744 -35.10199,14.480988 -41.357788,21.895294c-6.606567,6.835022 -4.752991,23.053772 2.4328,19.578308z" clip-rule="evenodd"/>
    <path id="svg_22" fill-rule="evenodd" fill="#E7F2D6" d="m502.901642,201.374527c1.966217,2.201111 2.777161,69.045486 2.4328,99.976883c-0.466583,30.468018 -3.131104,84.569092 -4.865601,82.83139c-2.551849,-2.4328 -7.530121,-64.527405 -7.298462,-95.111298c0.234985,-30.815552 7.642792,-89.666382 9.731262,-87.696976z" clip-rule="evenodd"/>
    <path id="svg_23" fill-rule="evenodd" fill="#E7F2D6" d="m405.357574,133.140015c4.402222,10.773865 26.760895,127.896271 26.87677,141.334656c-0.115875,12.511566 -22.474548,-39.735901 -26.87677,-63.368896c-4.633942,-23.98056 -4.633942,-88.392082 0,-77.965759z" clip-rule="evenodd"/>
    <path id="svg_24" fill-rule="evenodd" fill="#E7F2D6" d="m432.234344,313.515472c-1.042633,0.810913 5.560699,33.480072 12.164063,60.936066c5.908203,27.456024 22.937866,102.525574 24.328064,102.293854c1.158478,-1.390198 -11.237274,-79.703461 -17.029694,-107.159454c-6.255798,-27.803558 -18.41983,-56.765564 -19.462433,-56.070465z" clip-rule="evenodd"/>
    <path id="svg_25" fill-rule="evenodd" fill="#E7F2D6" d="m327.391846,267.176239c6.719177,11.584808 33.711792,96.964844 43.906372,129.170593c9.615417,31.858215 20.736816,71.825806 14.596893,60.936066c-6.835022,-11.816498 -43.790558,-97.312378 -53.637695,-129.170593c-9.847046,-32.20575 -11.468903,-72.173325 -4.86557,-60.936066z" clip-rule="evenodd"/>
    <path id="svg_26" fill-rule="evenodd" fill="#E7F2D6" d="m212.818085,279.340271c4.286377,7.298462 52.363342,61.862854 58.503265,65.801727c5.213196,3.243744 -14.365143,-32.785004 -24.328079,-43.790588c-10.194626,-11.237244 -38.114014,-29.30954 -34.175186,-22.011139z" clip-rule="evenodd"/>
    <path id="svg_27" fill-rule="evenodd" fill="#E7F2D6" d="m225.097977,189.21048c-0.463394,1.969421 19.578323,34.175186 24.328094,38.924957c4.402237,4.402222 6.255798,-5.908264 2.432816,-12.164063c-4.170532,-6.603333 -26.645065,-29.07785 -26.76091,-26.760895z" clip-rule="evenodd"/>
    <path id="svg_28" fill-rule="evenodd" fill="#E7F2D6" d="m246.993271,177.046432c1.737717,4.865616 35.797043,53.405945 41.473587,58.503265c5.213165,4.633942 -3.127869,-19.578323 -9.847076,-29.30954c-7.182556,-10.194641 -33.364243,-33.943497 -31.626511,-29.193726z" clip-rule="evenodd"/>
    <path id="svg_29" fill-rule="evenodd" fill="#E7F2D6" d="m320.093384,518.218994c-20.273407,-9.383698 -67.771103,-36.376282 -80.39856,-39.040802c-12.743271,-3.012024 -15.291931,12.511597 4.865631,22.011139c20.273438,9.499573 101.367065,30.815613 114.57373,34.059326c12.164032,2.548706 -18.999054,-7.76178 -39.040802,-17.029663z" clip-rule="evenodd"/>
    <path id="svg_30" fill-rule="evenodd" fill="#E7F2D6" d="m166.594711,520.651794c11.353104,4.402222 104.379105,24.44397 112.02507,24.328064c6.950897,-0.463318 -49.582962,-22.937866 -68.234512,-26.760864c-19.346619,-4.170532 -54.796143,-2.316956 -43.790558,2.4328z" clip-rule="evenodd"/>
    <path id="svg_31" fill-rule="evenodd" fill="#E7F2D6" d="m186.057175,647.389587c8.22522,-1.737732 132.761887,6.255798 151.065903,9.731262c17.029633,3.127869 -20.852661,11.121399 -46.223389,9.728027c-25.602417,-1.737732 -112.372635,-18.069031 -104.842514,-19.45929z" clip-rule="evenodd"/>
    <path id="svg_32" fill-rule="evenodd" fill="#E7F2D6" d="m356.701385,679.016174c-0.231689,-3.243774 -41.357758,15.176086 -65.801697,24.443909c-25.023193,9.267822 -80.16687,25.258057 -80.51442,29.193726c0.347549,2.896179 55.491226,-0.810974 80.51442,-9.728027c24.443939,-9.155273 65.570007,-40.784973 65.801697,-43.909607z" clip-rule="evenodd"/>
    <path id="svg_33" fill-rule="evenodd" fill="#E7F2D6" d="m419.954437,705.892883c2.548676,6.368408 -9.847107,109.47644 -17.029663,141.334595c-7.414276,31.278931 -24.21225,51.899963 -26.760895,46.220154c-2.780365,-6.603394 2.085236,-51.317444 9.731232,-82.828186c7.414246,-31.626465 30.815552,-110.750671 34.059326,-104.726563z" clip-rule="evenodd"/>
    <path id="svg_34" fill-rule="evenodd" fill="#E7F2D6" d="m483.323334,852.09314c-2.085266,3.822937 -18.419861,114.80542 -19.462524,134.036194c-1.390106,18.184998 8.920319,0.579285 12.164093,-22.014343c3.359589,-22.934692 8.920288,-115.38147 7.298431,-112.021851z" clip-rule="evenodd"/>
    <path id="svg_35" fill-rule="evenodd" fill="#E7F2D6" d="m510.196838,805.753906c-1.853577,4.057983 6.371643,69.512146 17.032898,99.860962c10.661255,30.004822 44.253967,81.209656 46.339172,78.081665c1.502808,-4.170532 -26.184814,-69.968933 -36.611206,-99.973572c-10.889648,-30.007935 -25.019897,-81.444458 -26.760864,-77.969055z" clip-rule="evenodd"/>
    <path id="svg_36" fill-rule="evenodd" fill="#D1ECA9" d="m54.917164,666.041138c-6.835037,-2.548645 -22.590378,7.417542 -24.443947,10.661255c-1.62187,2.892944 11.005569,2.082031 14.596859,6.950928c3.012051,4.514832 1.158485,18.184937 5.213161,20.041687c3.822987,1.158447 17.724751,-5.329041 18.535694,-11.465759c0.347542,-6.378052 -7.414276,-23.758545 -13.901768,-26.18811z" clip-rule="evenodd"/>
    <path id="svg_37" fill-rule="evenodd" fill="#86A338" d="m61.636349,661.175537c-6.487484,-2.4328 -22.937912,7.182556 -24.328094,10.542114c-1.853569,2.548706 11.005569,2.317017 14.481014,6.947693c3.012043,4.518066 1.15847,18.188171 5.213154,20.044922c3.822994,1.158508 17.724766,-5.328918 18.535694,-11.468933c0.347542,-6.487488 -7.414276,-23.517151 -13.901768,-26.065796z" clip-rule="evenodd"/>
    <path id="svg_38" fill-rule="evenodd" fill="#D1ECA9" d="m296.228699,1052.16272c-2.4328,3.707153 21.200226,29.773071 29.30954,32.205688c7.298431,1.621948 21.200195,-15.636108 16.21875,-20.968384c-5.213165,-5.560669 -42.747955,-14.828491 -45.52829,-11.237305z" clip-rule="evenodd"/>
    <path id="svg_39" fill-rule="evenodd" fill="#86A338" d="m303.642944,1048.339844c-2.43277,3.359619 21.200226,30.001343 29.309601,32.089966c7.414276,1.505981 20.968506,-15.407837 16.102844,-20.852783c-5.097321,-5.560791 -42.86377,-14.828491 -45.412445,-11.237183z" clip-rule="evenodd"/>
    <path id="svg_40" fill-rule="evenodd" fill="#D1ECA9" d="m126.627113,875.610352c-1.737709,2.432861 -0.463387,6.371643 2.780357,8.688538c3.359604,2.316956 7.414276,2.316956 9.151993,-0.115784s0.579239,-6.368408 -2.78035,-8.68866c-3.243729,-2.4328 -7.298431,-2.316956 -9.152,0.115906z" clip-rule="evenodd"/>
    <path id="svg_41" fill-rule="evenodd" fill="#86A338" d="m127.669754,873.17749c-1.737732,2.432861 -0.463402,6.371643 2.78035,8.804382c3.359604,2.317017 7.414276,2.201233 9.151993,-0.231567s0.463409,-6.255859 -2.78035,-8.68866c-3.359604,-2.316956 -7.414276,-2.316956 -9.151993,0.115845z" clip-rule="evenodd"/>
    <path id="svg_42" fill-rule="evenodd" fill="#D1ECA9" d="m12.98016,400.40152c-1.73772,2.43277 -0.463391,6.371613 2.780355,8.688599c3.359594,2.432861 7.414276,2.316956 9.151997,-0.115845c1.737722,-2.4328 0.579241,-6.371643 -2.780352,-8.688599c-3.243748,-2.316986 -7.414279,-2.316986 -9.152,0.115845z" clip-rule="evenodd"/>
    <path id="svg_43" fill-rule="evenodd" fill="#86A338" d="m14.022794,398.084564c-1.73772,2.4328 -0.579241,6.371643 2.780354,8.688568c3.243744,2.316986 7.414272,2.316986 9.151997,-0.115845c1.737722,-2.4328 0.46339,-6.371613 -2.780354,-8.688599c-3.359596,-2.4328 -7.414276,-2.316925 -9.151998,0.115875z" clip-rule="evenodd"/>
    <path id="svg_44" fill-rule="evenodd" fill="#D1ECA9" d="m462.007294,1145.533081c-1.737732,2.435913 -0.463379,6.371826 2.896179,8.688721c3.243744,2.432739 7.298431,2.317017 9.036133,-0.115967s0.579285,-6.368286 -2.780334,-8.685303c-3.243713,-2.436157 -7.298462,-2.317017 -9.151978,0.112549z" clip-rule="evenodd"/>
    <path id="svg_45" fill-rule="evenodd" fill="#86A338" d="m463.049896,1143.219238c-1.737762,2.432983 -0.463379,6.255859 2.780365,8.688721c3.359558,2.317017 7.414276,2.317017 9.151978,-0.115967c1.737732,-2.548584 0.463379,-6.368286 -2.780365,-8.804443c-3.243683,-2.316895 -7.414246,-2.200928 -9.151978,0.231689z" clip-rule="evenodd"/>
    <path id="svg_46" fill-rule="evenodd" fill="#D1ECA9" d="m39.39352,289.650757c-3.127899,4.286407 -0.926785,11.121399 4.86562,15.291931c5.792408,4.170532 13.090836,4.054718 16.102879,-0.231689c3.127903,-4.286377 0.926788,-11.237244 -4.865612,-15.407776c-5.792408,-4.170563 -13.090836,-4.054718 -16.102886,0.347534z" clip-rule="evenodd"/>
    <path id="svg_47" fill-rule="evenodd" fill="#86A338" d="m41.131241,285.480255c-3.127895,4.286346 -0.926785,11.121368 4.86562,15.291901c5.908257,4.170532 13.090832,4.054688 16.218731,-0.231659c3.012054,-4.286377 0.926785,-11.237274 -4.981468,-15.407837c-5.7924,-4.170502 -12.974983,-4.054657 -16.102882,0.347595z" clip-rule="evenodd"/>
    <path id="svg_48" fill-rule="evenodd" fill="#D1ECA9" d="m75.653969,767.408264c-3.127899,4.286377 -0.926781,11.237244 4.865616,15.407776s13.090836,4.054626 16.218735,-0.228455c3.012039,-4.402283 0.810928,-11.237305 -4.981476,-15.407837c-5.792397,-4.176941 -12.974976,-4.057922 -16.102875,0.228516z" clip-rule="evenodd"/>
    <path id="svg_49" fill-rule="evenodd" fill="#86A338" d="m77.391685,763.237671c-3.127899,4.286438 -0.926781,11.237244 4.981468,15.407776c5.792404,4.170532 12.974983,4.054688 16.10289,-0.231628c3.012039,-4.399048 0.926781,-11.23407 -4.981476,-15.407837c-5.792404,-4.170532 -12.974983,-4.054688 -16.102882,0.231689z" clip-rule="evenodd"/>
    <path id="svg_50" fill-rule="evenodd" fill="#D1ECA9" d="m226.835709,986.129333c-1.737732,2.432922 -0.463409,6.36853 2.78035,8.685486c3.359589,2.4328 7.414276,2.320129 9.151993,-0.115906c1.737732,-2.432739 0.579254,-6.368469 -2.780334,-8.685364c-3.243759,-2.4328 -7.298462,-2.320251 -9.152008,0.115784z" clip-rule="evenodd"/>
    <path id="svg_51" fill-rule="evenodd" fill="#86A338" d="m227.878326,983.812378c-1.737732,2.432861 -0.463379,6.255859 2.78035,8.68866c3.359589,2.316956 7.414291,2.316956 9.152008,-0.115845c1.737717,-2.548645 0.463379,-6.368469 -2.78035,-8.801208c-3.359589,-2.32019 -7.414276,-2.204407 -9.152008,0.228394z" clip-rule="evenodd"/>
    <path id="svg_52" fill-rule="evenodd" fill="#D1ECA9" d="m101.372238,156.193771c-1.737709,2.432831 -0.463402,6.255814 2.780365,8.688614c3.359589,2.316956 7.414261,2.316956 9.151985,-0.231705c1.737724,-2.4328 0.579239,-6.255783 -2.78035,-8.688583c-3.243744,-2.316971 -7.414284,-2.316971 -9.152,0.231674z" clip-rule="evenodd"/>
    <path id="svg_53" fill-rule="evenodd" fill="#86A338" d="m102.414871,153.760971c-1.737717,2.4328 -0.579239,6.368423 2.780357,8.688614c3.243736,2.4328 7.414268,2.316971 9.152,-0.11586c1.737717,-2.4328 0.463394,-6.371628 -2.780365,-8.688599c-3.359589,-2.432816 -7.414261,-2.316956 -9.151993,0.115845z" clip-rule="evenodd"/>
   </g>
  </g>
 </g>
</svg>